<svg width="73" height="66" viewBox="0 0 73 66" fill="none" xmlns="http://www.w3.org/2000/svg">
<g opacity="0.8">
<rect x="18.4483" y="0.984055" width="58.0097" height="43.8645" rx="6.55" transform="rotate(23.5 18.4483 0.984055)" fill="white" fill-opacity="0.26" stroke="white" stroke-width="1.4"/>
<path d="M13.3848 13.2026L27.9374 19.5303C29.7734 20.3286 30.6146 22.4641 29.8163 24.3001L26.9125 30.9784M19.1209 48.8979L22.5632 40.981M22.5632 40.981L26.9125 30.9784M22.5632 40.981L4.68626 33.2078M26.9125 30.9784L9.03551 23.2052" stroke="white" stroke-width="1.4"/>
<path d="M66.1641 36.1519L49.1384 28.7489M49.1384 28.7489L44.7891 38.7515M49.1384 28.7489L54.3205 16.8309M36.9975 56.671L40.4399 48.7541M40.4399 48.7541L44.7891 38.7515M40.4399 48.7541L57.4656 56.1571M44.7891 38.7515L61.8148 46.1545" stroke="white" stroke-width="1.4"/>
</g>
</svg>
